<svg width="50" height="50" viewBox="0 0 50 50" fill="none" xmlns="http://www.w3.org/2000/svg">
<path d="M47.4859 19.8094L42.6984 18.85C42.4578 18.1578 42.1734 17.4859 41.8594 16.8359L44.5719 12.7672C45.3984 11.5281 45.2344 9.87656 44.1812 8.825L41.175 5.81875C40.5703 5.21406 39.7719 4.90312 38.9625 4.90312C38.3641 4.90312 37.7594 5.075 37.2328 5.42812L33.1641 8.13906C32.5109 7.82344 31.8391 7.54219 31.1469 7.30156L30.1875 2.5125C29.8969 1.05 28.6125 0 27.1234 0H22.8734C21.3844 0 20.1016 1.05156 19.8094 2.5125L18.85 7.30156C18.1578 7.54219 17.4859 7.825 16.8359 8.13906L12.7688 5.42812C12.2391 5.075 11.6359 4.90312 11.0359 4.90312C10.2281 4.90312 9.42969 5.21406 8.825 5.81875L5.82031 8.825C4.76719 9.87813 4.60313 11.5281 5.42969 12.7672L8.14062 16.8359C7.825 17.4875 7.54375 18.1594 7.30312 18.8516L2.5125 19.8094C1.05156 20.1016 0 21.3844 0 22.8734V27.1234C0 28.6125 1.05156 29.8969 2.5125 30.1875L7.30156 31.1484C7.54219 31.8406 7.825 32.5125 8.13906 33.1625L5.42969 37.2312C4.60313 38.4703 4.76719 40.1219 5.82031 41.1734L8.82656 44.1797C9.43125 44.7844 10.2297 45.0953 11.0375 45.0953C11.6375 45.0953 12.2422 44.9219 12.7688 44.5703L16.8375 41.8578C17.4891 42.175 18.1609 42.4562 18.8531 42.6969L19.8109 47.4844C20.1031 48.9469 21.3859 49.9984 22.875 49.9984H27.125C28.6141 49.9984 29.8984 48.9453 30.1891 47.4844L31.15 42.6969C31.8422 42.4562 32.5141 42.1719 33.1641 41.8578L37.2328 44.5703C37.7609 44.9219 38.3656 45.0953 38.9625 45.0953C39.7719 45.0953 40.5703 44.7844 41.175 44.1797L44.1812 41.1734C45.2344 40.1203 45.3984 38.4703 44.5719 37.2312L41.8594 33.1625C42.1766 32.5094 42.4578 31.8375 42.6984 31.1453L47.4859 30.1875C48.9469 29.8984 50 28.6125 50 27.1234V22.8734C50 21.3844 48.9469 20.1016 47.4859 19.8094ZM42.0844 28.0828C40.9984 28.3 40.1094 29.075 39.7469 30.1219C39.5453 30.6984 39.3109 31.2578 39.0484 31.8C38.5625 32.7984 38.6453 33.9766 39.2594 34.8969L41.9719 38.9656L38.9656 41.9719L34.8969 39.2594C34.375 38.9109 33.7703 38.7344 33.1641 38.7344C32.7 38.7344 32.2328 38.8375 31.8031 39.0453C31.2594 39.3078 30.7016 39.5453 30.1219 39.7469C29.0781 40.1094 28.3031 40.9984 28.0859 42.0844L27.125 46.875H22.875L21.9172 42.0844C21.7 40.9984 20.925 40.1094 19.8797 39.7469C19.3031 39.5453 18.7422 39.3109 18.2 39.0484C17.7687 38.8375 17.3031 38.7344 16.8375 38.7344C16.2297 38.7344 15.6266 38.9109 15.1047 39.2594L11.0359 41.9719L8.02969 38.9656L10.7406 34.8969C11.3547 33.975 11.4344 32.7969 10.9547 31.8031C10.6922 31.2594 10.4563 30.7016 10.2547 30.1219C9.89219 29.0781 9.00156 28.3031 7.91719 28.0859L3.12813 27.125L3.125 22.8734L7.91563 21.9156C9 21.6984 9.89062 20.9234 10.2531 19.8781C10.4547 19.3016 10.6875 18.7406 10.9516 18.1984C11.4359 17.2016 11.3547 16.0234 10.7391 15.1031L8.02969 11.0344L11.0344 8.02812L15.1031 10.7391C15.625 11.0875 16.2297 11.2641 16.8359 11.2641C17.3 11.2641 17.7656 11.1609 18.1969 10.9531C18.7391 10.6906 19.2984 10.4547 19.8766 10.2531C20.9219 9.89062 21.6969 9 21.9141 7.91563L22.8734 3.12656L27.1234 3.125L28.0812 7.91563C28.2984 9 29.0734 9.89062 30.1203 10.2531C30.6969 10.4547 31.2563 10.6875 31.7984 10.9516C32.2313 11.1609 32.6953 11.2641 33.1625 11.2641C33.7703 11.2641 34.3734 11.0875 34.8953 10.7391L38.9641 8.02812L41.9703 11.0344L39.2578 15.1031C38.6437 16.025 38.5656 17.2016 39.0438 18.1969C39.3063 18.7391 39.5438 19.2984 39.7453 19.8766C40.1078 20.9219 40.9969 21.6969 42.0828 21.9141L46.8703 22.8734L46.875 27.1234L42.0844 28.0828Z" fill="#D4AF37"/>
<path d="M25 14.061C18.9609 14.061 14.0625 18.9595 14.0625 24.9985C14.0625 31.0392 18.9609 35.936 25 35.936C31.0391 35.936 35.9375 31.0376 35.9375 24.9985C35.9375 18.9595 31.0391 14.061 25 14.061ZM25 34.5704C19.7156 34.5704 15.4297 30.2829 15.4297 25.0001C15.4297 19.7157 19.7156 15.4298 25 15.4298C30.2828 15.4298 34.5703 19.7157 34.5703 25.0001C34.5703 30.2829 30.2828 34.5704 25 34.5704Z" fill="#D4AF37"/>
<path d="M25 18.7485C21.5469 18.7485 18.75 21.5454 18.75 24.9985C18.75 28.4501 21.5469 31.2485 25 31.2485C28.4516 31.2485 31.25 28.4501 31.25 24.9985C31.25 21.547 28.4516 18.7485 25 18.7485ZM25 29.6876C22.4125 29.6876 20.3125 27.5876 20.3125 25.0001C20.3125 22.4126 22.4125 20.3126 25 20.3126C27.5875 20.3126 29.6875 22.4126 29.6875 25.0001C29.6875 27.5876 27.5875 29.6876 25 29.6876Z" fill="#D4AF37"/>
</svg>
