<svg width="250" height="250" viewBox="0 0 250 250" fill="none" xmlns="http://www.w3.org/2000/svg">
<circle cx="125" cy="125" r="123" fill="#D4AF37" stroke="#D4AF37" stroke-width="4"/>
<path d="M187 118.635C187 114.786 183.901 111.687 180.052 111.687C176.203 111.687 173.104 114.786 173.104 118.635C173.104 142.477 151.305 161.857 124.5 161.857C97.6948 161.857 75.8965 142.477 75.8965 118.635C75.8965 114.786 72.797 111.687 68.9482 111.687C65.0995 111.687 62 114.786 62 118.635C62 147.994 86.3529 172.245 117.552 175.413V194.997H109.514C105.665 194.997 102.565 198.097 102.565 201.945C102.565 205.794 105.665 208.894 109.514 208.894H139.486C143.335 208.894 146.435 205.794 146.435 201.945C146.435 198.097 143.335 194.997 139.486 194.997H131.448V175.413C162.647 172.245 187 147.994 187 118.635Z" fill="black"/>
<path d="M124.5 148.437C141.871 148.437 155.937 134.371 155.937 117V73.4373C155.937 56.0668 141.871 42 124.5 42C107.13 42 93.0627 56.0668 93.0627 73.4373V117C93.0627 134.371 107.13 148.437 124.5 148.437ZM106.687 73.4373C106.687 63.6281 114.691 55.624 124.5 55.624C134.309 55.624 142.313 63.6281 142.313 73.4373V117C142.313 126.809 134.309 134.813 124.5 134.813C114.691 134.813 106.687 126.809 106.687 117V73.4373Z" fill="black"/>
</svg>
