<svg width="50" height="50" viewBox="0 0 50 50" fill="none" xmlns="http://www.w3.org/2000/svg">
<g opacity="0.9">
<path fill-rule="evenodd" clip-rule="evenodd" d="M26.25 0C17.5 0 9.75 5 5.75 12.6316L0 6.57895V23.6842H16.25L9.25 16.3158C12.5 9.73684 18.75 5.26316 26.25 5.26316C36.5 5.26316 45 14.2105 45 25C45 35.7895 36.5 44.7368 26.25 44.7368C18 44.7368 11.25 39.2105 8.5 31.5789H3.25C6 42.1053 15.25 50 26.25 50C39.5 50 50 38.6842 50 25C50 11.3158 39.25 0 26.25 0ZM22.5 13.1579V26.5789L34.25 33.9474L36.25 30.5263L26.25 24.2105V13.1579H22.5Z" fill="#D4AF37"/>
</g>
</svg>
